<svg xmlns="http://www.w3.org/2000/svg" viewBox="0 0 100 100" width="100%" height="100%">
  <path d="M50 15 C60 25, 75 25, 80 40 C85 55, 75 70, 60 75 C45 80, 45 65, 50 50 C45 65, 25 75, 15 65 C5 55, 15 35, 25 25 C35 15, 40 25, 50 15 Z" fill="#E8C3C9" opacity="0.8"/>
  <circle cx="50" cy="45" r="5" fill="#D4AF37"/>
  <path d="M50 45 L50 90" stroke="#8E9B90" stroke-width="2" fill="none"/>
  <path d="M50 65 C60 60, 70 70, 65 80" stroke="#8E9B90" stroke-width="2" fill="none"/>
  <path d="M50 75 C40 70, 30 80, 35 90" stroke="#8E9B90" stroke-width="2" fill="none"/>
</svg>